STARTFONT 2.1
FONT -Adobe-Times-Medium-I-Normal--10-100-75-75-P-52-windows-1251
SIZE 10 75 75
FONTBOUNDINGBOX 12 13 -2 -3
COMMENT $XConsortium: timI10.bdf,v 1.14 95/01/26 18:06:44 gildea Exp $
COMMENT 
COMMENT +
COMMENT  Copyright 1984-1989, 1994 Adobe Systems Incorporated.
COMMENT  Copyright 1988, 1994 Digital Equipment Corporation.
COMMENT
COMMENT  Adobe is a trademark of Adobe Systems Incorporated which may be
COMMENT  registered in certain jurisdictions.
COMMENT  Permission to use these trademarks is hereby granted only in
COMMENT  association with the images described in this file.
COMMENT
COMMENT  Permission to use, copy, modify, distribute and sell this software
COMMENT  and its documentation for any purpose and without fee is hereby
COMMENT  granted, provided that the above copyright notices appear in all
COMMENT  copies and that both those copyright notices and this permission
COMMENT  notice appear in supporting documentation, and that the names of
COMMENT  Adobe Systems and Digital Equipment Corporation not be used in
COMMENT  advertising or publicity pertaining to distribution of the software
COMMENT  without specific, written prior permission.  Adobe Systems and
COMMENT  Digital Equipment Corporation make no representations about the
COMMENT  suitability of this software for any purpose.  It is provided "as
COMMENT  is" without express or implied warranty.
COMMENT -
STARTPROPERTIES 32
FOUNDRY "Adobe"
FAMILY_NAME "Times"
WEIGHT_NAME "Medium"
SLANT "I"
SETWIDTH_NAME "Normal"
ADD_STYLE_NAME ""
PIXEL_SIZE 10
POINT_SIZE 100
RESOLUTION_X 75
RESOLUTION_Y 75
SPACING "P"
AVERAGE_WIDTH 52
CHARSET_REGISTRY "windows"
CHARSET_ENCODING "1251"
CAP_HEIGHT 7
X_HEIGHT 5
FONT_ASCENT 9
FONT_DESCENT 3
FACE_NAME "Times Italic"
COPYRIGHT "Copyright (c) 1984, 1987 Adobe Systems Incorporated. All Rights Reserved. Copyright (c) 1988, 1991 Digital Equipment Corporation. All Rights Reserved."
NOTICE "Times is a trademark of Linotype-Hell AG and/or its subsidiaries."

STARTCHAR space
ENCODING 32
SWIDTH 250 0
DWIDTH 2 0
BBX 0 0 0 0
BITMAP
ENDCHAR
STARTCHAR exclam
ENCODING 33
SWIDTH 333 0
DWIDTH 3 0
BBX 3 7 0 0
BITMAP
20
20
40
40
80
00
80
ENDCHAR
STARTCHAR quotedbl
ENCODING 34
SWIDTH 420 0
DWIDTH 4 0
BBX 3 3 1 5
BITMAP
A0
A0
A0
ENDCHAR
STARTCHAR numbersign
ENCODING 35
SWIDTH 500 0
DWIDTH 5 0
BBX 7 7 -1 0
BITMAP
14
14
7E
28
FC
50
50
ENDCHAR
STARTCHAR dollar
ENCODING 36
SWIDTH 500 0
DWIDTH 5 0
BBX 5 9 0 -1
BITMAP
10
38
48
60
30
10
90
E0
40
ENDCHAR
STARTCHAR percent
ENCODING 37
SWIDTH 833 0
DWIDTH 9 0
BBX 7 7 1 0
BITMAP
64
B8
A8
54
2A
4A
44
ENDCHAR
STARTCHAR ampersand
ENCODING 38
SWIDTH 778 0
DWIDTH 8 0
BBX 7 7 0 0
BITMAP
18
28
30
66
94
98
EC
ENDCHAR
STARTCHAR quotesingle
ENCODING 39
SWIDTH 214 0
DWIDTH 3 0
BBX 1 3 2 5
BITMAP
80
80
80
ENDCHAR
STARTCHAR parenleft
ENCODING 40
SWIDTH 333 0
DWIDTH 3 0
BBX 4 9 0 -2
BITMAP
30
40
40
80
80
80
80
80
40
ENDCHAR
STARTCHAR parenright
ENCODING 41
SWIDTH 333 0
DWIDTH 4 0
BBX 4 9 -1 -2
BITMAP
20
10
10
10
10
10
20
20
C0
ENDCHAR
STARTCHAR asterisk
ENCODING 42
SWIDTH 500 0
DWIDTH 5 0
BBX 3 3 2 4
BITMAP
A0
40
A0
ENDCHAR
STARTCHAR plus
ENCODING 43
SWIDTH 675 0
DWIDTH 7 0
BBX 5 5 0 0
BITMAP
20
20
F8
20
20
ENDCHAR
STARTCHAR comma
ENCODING 44
SWIDTH 250 0
DWIDTH 3 0
BBX 2 3 -1 -2
BITMAP
40
40
80
ENDCHAR
STARTCHAR minus
ENCODING 45
SWIDTH 675 0
DWIDTH 7 0
BBX 4 1 1 2
BITMAP
F0
ENDCHAR
STARTCHAR period
ENCODING 46
SWIDTH 250 0
DWIDTH 3 0
BBX 1 1 0 0
BITMAP
80
ENDCHAR
STARTCHAR slash
ENCODING 47
SWIDTH 278 0
DWIDTH 4 0
BBX 4 7 0 0
BITMAP
10
10
20
40
40
80
80
ENDCHAR
STARTCHAR zero
ENCODING 48
SWIDTH 500 0
DWIDTH 5 0
BBX 5 7 0 0
BITMAP
30
48
48
88
90
90
60
ENDCHAR
STARTCHAR one
ENCODING 49
SWIDTH 500 0
DWIDTH 5 0
BBX 4 7 0 0
BITMAP
30
10
20
20
40
40
E0
ENDCHAR
STARTCHAR two
ENCODING 50
SWIDTH 500 0
DWIDTH 5 0
BBX 5 7 0 0
BITMAP
30
48
08
10
20
48
F0
ENDCHAR
STARTCHAR three
ENCODING 51
SWIDTH 500 0
DWIDTH 5 0
BBX 6 7 -1 0
BITMAP
18
24
08
30
08
88
70
ENDCHAR
STARTCHAR four
ENCODING 52
SWIDTH 500 0
DWIDTH 5 0
BBX 5 7 0 0
BITMAP
18
28
50
90
F8
20
20
ENDCHAR
STARTCHAR five
ENCODING 53
SWIDTH 500 0
DWIDTH 5 0
BBX 6 7 -1 0
BITMAP
1C
10
20
10
08
88
70
ENDCHAR
STARTCHAR six
ENCODING 54
SWIDTH 500 0
DWIDTH 5 0
BBX 5 7 0 0
BITMAP
18
20
40
A0
90
90
60
ENDCHAR
STARTCHAR seven
ENCODING 55
SWIDTH 500 0
DWIDTH 5 0
BBX 4 7 1 0
BITMAP
F0
90
20
40
40
80
80
ENDCHAR
STARTCHAR eight
ENCODING 56
SWIDTH 500 0
DWIDTH 5 0
BBX 5 7 0 0
BITMAP
30
48
30
60
90
90
60
ENDCHAR
STARTCHAR nine
ENCODING 57
SWIDTH 500 0
DWIDTH 5 0
BBX 5 7 0 0
BITMAP
30
48
48
28
10
20
C0
ENDCHAR
STARTCHAR colon
ENCODING 58
SWIDTH 333 0
DWIDTH 3 0
BBX 2 5 0 0
BITMAP
40
00
00
00
80
ENDCHAR
STARTCHAR semicolon
ENCODING 59
SWIDTH 333 0
DWIDTH 3 0
BBX 3 7 -1 -2
BITMAP
20
00
00
00
40
40
80
ENDCHAR
STARTCHAR less
ENCODING 60
SWIDTH 675 0
DWIDTH 5 0
BBX 3 5 1 0
BITMAP
20
40
80
40
20
ENDCHAR
STARTCHAR equal
ENCODING 61
SWIDTH 675 0
DWIDTH 7 0
BBX 5 3 0 1
BITMAP
F8
00
F8
ENDCHAR
STARTCHAR greater
ENCODING 62
SWIDTH 675 0
DWIDTH 5 0
BBX 3 5 1 0
BITMAP
80
40
20
40
80
ENDCHAR
STARTCHAR question
ENCODING 63
SWIDTH 500 0
DWIDTH 5 0
BBX 4 7 1 0
BITMAP
60
90
20
40
80
00
80
ENDCHAR
STARTCHAR at
ENCODING 64
SWIDTH 920 0
DWIDTH 10 0
BBX 9 9 0 -2
BITMAP
1E00
2100
4A80
9480
A480
AD00
9200
4000
3C00
ENDCHAR
STARTCHAR A
ENCODING 65
SWIDTH 611 0
DWIDTH 7 0
BBX 7 7 -1 0
BITMAP
04
0C
14
24
3C
44
EE
ENDCHAR
STARTCHAR B
ENCODING 66
SWIDTH 611 0
DWIDTH 6 0
BBX 7 7 -1 0
BITMAP
3C
12
22
3C
44
44
F8
ENDCHAR
STARTCHAR C
ENCODING 67
SWIDTH 667 0
DWIDTH 7 0
BBX 7 7 0 0
BITMAP
1E
22
40
40
80
88
70
ENDCHAR
STARTCHAR D
ENCODING 68
SWIDTH 722 0
DWIDTH 7 0
BBX 8 7 -1 0
BITMAP
3E
11
21
22
42
44
F8
ENDCHAR
STARTCHAR E
ENCODING 69
SWIDTH 611 0
DWIDTH 6 0
BBX 7 7 -1 0
BITMAP
3E
12
20
38
40
44
F8
ENDCHAR
STARTCHAR F
ENCODING 70
SWIDTH 611 0
DWIDTH 6 0
BBX 7 7 -1 0
BITMAP
3E
12
20
38
40
40
E0
ENDCHAR
STARTCHAR G
ENCODING 71
SWIDTH 722 0
DWIDTH 8 0
BBX 7 7 0 0
BITMAP
1E
22
40
4E
84
88
78
ENDCHAR
STARTCHAR H
ENCODING 72
SWIDTH 722 0
DWIDTH 7 0
BBX 9 7 -1 0
BITMAP
3B80
1100
2200
3E00
4400
4400
EE00
ENDCHAR
STARTCHAR I
ENCODING 73
SWIDTH 333 0
DWIDTH 3 0
BBX 5 7 -1 0
BITMAP
38
10
20
20
40
40
E0
ENDCHAR
STARTCHAR J
ENCODING 74
SWIDTH 444 0
DWIDTH 4 0
BBX 6 7 -1 0
BITMAP
1C
08
10
10
20
A0
C0
ENDCHAR
STARTCHAR K
ENCODING 75
SWIDTH 667 0
DWIDTH 7 0
BBX 8 7 -1 0
BITMAP
3B
12
24
38
48
44
EE
ENDCHAR
STARTCHAR L
ENCODING 76
SWIDTH 556 0
DWIDTH 6 0
BBX 6 7 -1 0
BITMAP
38
10
20
20
40
44
FC
ENDCHAR
STARTCHAR M
ENCODING 77
SWIDTH 833 0
DWIDTH 10 0
BBX 11 7 -1 0
BITMAP
3060
10C0
2940
2A40
4A80
4C80
E9C0
ENDCHAR
STARTCHAR N
ENCODING 78
SWIDTH 667 0
DWIDTH 7 0
BBX 9 7 -1 0
BITMAP
3380
1100
2900
2A00
4A00
4400
E400
ENDCHAR
STARTCHAR O
ENCODING 79
SWIDTH 722 0
DWIDTH 7 0
BBX 7 7 0 0
BITMAP
1C
22
42
44
84
88
70
ENDCHAR
STARTCHAR P
ENCODING 80
SWIDTH 611 0
DWIDTH 6 0
BBX 7 7 -1 0
BITMAP
3C
12
22
3C
40
40
E0
ENDCHAR
STARTCHAR Q
ENCODING 81
SWIDTH 722 0
DWIDTH 7 0
BBX 7 9 0 -2
BITMAP
1C
22
42
44
84
88
70
48
F0
ENDCHAR
STARTCHAR R
ENCODING 82
SWIDTH 611 0
DWIDTH 6 0
BBX 7 7 -1 0
BITMAP
3C
12
22
3C
48
44
E6
ENDCHAR
STARTCHAR S
ENCODING 83
SWIDTH 500 0
DWIDTH 5 0
BBX 5 7 0 0
BITMAP
38
48
40
20
10
90
E0
ENDCHAR
STARTCHAR T
ENCODING 84
SWIDTH 556 0
DWIDTH 6 0
BBX 7 7 0 0
BITMAP
7E
94
20
20
40
40
E0
ENDCHAR
STARTCHAR U
ENCODING 85
SWIDTH 722 0
DWIDTH 7 0
BBX 8 7 0 0
BITMAP
77
22
44
44
88
88
70
ENDCHAR
STARTCHAR V
ENCODING 86
SWIDTH 611 0
DWIDTH 6 0
BBX 7 7 0 0
BITMAP
EE
44
48
50
50
60
40
ENDCHAR
STARTCHAR W
ENCODING 87
SWIDTH 833 0
DWIDTH 9 0
BBX 10 7 0 0
BITMAP
EDC0
4880
4900
4900
5A00
6C00
4800
ENDCHAR
STARTCHAR X
ENCODING 88
SWIDTH 611 0
DWIDTH 6 0
BBX 8 7 -1 0
BITMAP
37
12
14
18
28
48
DC
ENDCHAR
STARTCHAR Y
ENCODING 89
SWIDTH 556 0
DWIDTH 6 0
BBX 7 7 0 0
BITMAP
76
24
28
30
20
40
E0
ENDCHAR
STARTCHAR Z
ENCODING 90
SWIDTH 556 0
DWIDTH 6 0
BBX 7 7 0 0
BITMAP
3E
24
08
10
20
48
F8
ENDCHAR
STARTCHAR bracketleft
ENCODING 91
SWIDTH 389 0
DWIDTH 4 0
BBX 4 9 0 -2
BITMAP
30
20
20
40
40
40
80
80
C0
ENDCHAR
STARTCHAR backslash
ENCODING 92
SWIDTH 278 0
DWIDTH 5 0
BBX 3 7 1 0
BITMAP
80
80
40
40
40
20
20
ENDCHAR
STARTCHAR bracketright
ENCODING 93
SWIDTH 389 0
DWIDTH 4 0
BBX 4 9 -1 -2
BITMAP
30
10
10
20
20
20
40
40
C0
ENDCHAR
STARTCHAR asciicircum
ENCODING 94
SWIDTH 422 0
DWIDTH 5 0
BBX 3 3 1 4
BITMAP
40
A0
A0
ENDCHAR
STARTCHAR underscore
ENCODING 95
SWIDTH 500 0
DWIDTH 5 0
BBX 5 1 -1 -3
BITMAP
F8
ENDCHAR
STARTCHAR grave
ENCODING 96
SWIDTH 333 0
DWIDTH 3 0
BBX 2 2 1 6
BITMAP
80
40
ENDCHAR
STARTCHAR a
ENCODING 97
SWIDTH 500 0
DWIDTH 5 0
BBX 4 5 0 0
BITMAP
30
50
90
A0
D0
ENDCHAR
STARTCHAR b
ENCODING 98
SWIDTH 500 0
DWIDTH 5 0
BBX 4 7 0 0
BITMAP
60
20
60
50
90
A0
C0
ENDCHAR
STARTCHAR c
ENCODING 99
SWIDTH 444 0
DWIDTH 5 0
BBX 4 5 0 0
BITMAP
30
50
80
90
E0
ENDCHAR
STARTCHAR d
ENCODING 100
SWIDTH 500 0
DWIDTH 5 0
BBX 5 7 0 0
BITMAP
18
08
30
50
90
A0
50
ENDCHAR
STARTCHAR e
ENCODING 101
SWIDTH 444 0
DWIDTH 5 0
BBX 4 5 0 0
BITMAP
30
50
E0
90
E0
ENDCHAR
STARTCHAR f
ENCODING 102
SWIDTH 278 0
DWIDTH 3 0
BBX 6 10 -2 -3
BITMAP
0C
10
3C
10
10
20
20
20
20
C0
ENDCHAR
STARTCHAR g
ENCODING 103
SWIDTH 500 0
DWIDTH 4 0
BBX 5 8 -1 -3
BITMAP
38
50
50
20
60
90
90
60
ENDCHAR
STARTCHAR h
ENCODING 104
SWIDTH 500 0
DWIDTH 5 0
BBX 4 7 0 0
BITMAP
60
20
30
50
50
A0
B0
ENDCHAR
STARTCHAR i
ENCODING 105
SWIDTH 278 0
DWIDTH 3 0
BBX 3 7 0 0
BITMAP
20
00
C0
40
40
80
C0
ENDCHAR
STARTCHAR j
ENCODING 106
SWIDTH 278 0
DWIDTH 3 0
BBX 5 10 -2 -3
BITMAP
08
00
30
10
10
20
20
20
A0
C0
ENDCHAR
STARTCHAR k
ENCODING 107
SWIDTH 444 0
DWIDTH 5 0
BBX 5 7 0 0
BITMAP
60
20
48
50
E0
A0
98
ENDCHAR
STARTCHAR l
ENCODING 108
SWIDTH 278 0
DWIDTH 3 0
BBX 3 7 0 0
BITMAP
60
20
40
40
80
80
C0
ENDCHAR
STARTCHAR m
ENCODING 109
SWIDTH 722 0
DWIDTH 7 0
BBX 6 5 0 0
BITMAP
AC
54
54
A8
AC
ENDCHAR
STARTCHAR n
ENCODING 110
SWIDTH 500 0
DWIDTH 5 0
BBX 4 5 0 0
BITMAP
B0
50
50
A0
B0
ENDCHAR
STARTCHAR o
ENCODING 111
SWIDTH 500 0
DWIDTH 5 0
BBX 4 5 0 0
BITMAP
70
50
90
A0
E0
ENDCHAR
STARTCHAR p
ENCODING 112
SWIDTH 500 0
DWIDTH 5 0
BBX 6 8 -2 -3
BITMAP
38
14
24
28
30
40
40
E0
ENDCHAR
STARTCHAR q
ENCODING 113
SWIDTH 500 0
DWIDTH 5 0
BBX 5 8 0 -3
BITMAP
38
50
90
A0
60
20
40
E0
ENDCHAR
STARTCHAR r
ENCODING 114
SWIDTH 389 0
DWIDTH 4 0
BBX 4 5 0 0
BITMAP
50
60
40
80
80
ENDCHAR
STARTCHAR s
ENCODING 115
SWIDTH 389 0
DWIDTH 4 0
BBX 3 5 0 0
BITMAP
60
80
40
20
C0
ENDCHAR
STARTCHAR t
ENCODING 116
SWIDTH 278 0
DWIDTH 3 0
BBX 4 6 0 0
BITMAP
20
F0
40
80
80
C0
ENDCHAR
STARTCHAR u
ENCODING 117
SWIDTH 500 0
DWIDTH 5 0
BBX 4 5 0 0
BITMAP
D0
50
A0
A0
D0
ENDCHAR
STARTCHAR v
ENCODING 118
SWIDTH 444 0
DWIDTH 5 0
BBX 4 5 0 0
BITMAP
D0
50
50
60
40
ENDCHAR
STARTCHAR w
ENCODING 119
SWIDTH 667 0
DWIDTH 7 0
BBX 6 5 0 0
BITMAP
D4
54
54
78
50
ENDCHAR
STARTCHAR x
ENCODING 120
SWIDTH 444 0
DWIDTH 4 0
BBX 5 5 -1 0
BITMAP
48
30
20
50
90
ENDCHAR
STARTCHAR y
ENCODING 121
SWIDTH 444 0
DWIDTH 5 0
BBX 5 8 -1 -3
BITMAP
68
28
28
30
10
20
20
C0
ENDCHAR
STARTCHAR z
ENCODING 122
SWIDTH 389 0
DWIDTH 4 0
BBX 4 5 0 0
BITMAP
70
10
20
40
E0
ENDCHAR
STARTCHAR braceleft
ENCODING 123
SWIDTH 400 0
DWIDTH 4 0
BBX 5 9 0 -2
BITMAP
18
20
20
40
80
40
40
40
60
ENDCHAR
STARTCHAR bar
ENCODING 124
SWIDTH 275 0
DWIDTH 3 0
BBX 3 9 0 -2
BITMAP
20
20
20
40
40
40
80
80
80
ENDCHAR
STARTCHAR braceright
ENCODING 125
SWIDTH 400 0
DWIDTH 4 0
BBX 5 9 -1 -2
BITMAP
30
10
10
10
08
10
20
20
C0
ENDCHAR
STARTCHAR asciitilde
ENCODING 126
SWIDTH 541 0
DWIDTH 6 0
BBX 6 2 0 2
BITMAP
64
98
ENDCHAR
STARTCHAR afii10051
ENCODING 128
SWIDTH 864 0
DWIDTH 9 0
BBX 7 10 1 -3
BITMAP
7E
94
20
3C
44
44
E4
08
10
20
ENDCHAR
STARTCHAR afii10052
ENCODING 129
SWIDTH 576 0
DWIDTH 6 0
BBX 7 10 -1 0
BITMAP
02
04
00
3E
12
20
20
40
40
E0
ENDCHAR
STARTCHAR quotesinglbase
ENCODING 130
SWIDTH 333 0
DWIDTH 3 0
BBX 2 3 -1 -2
BITMAP
40
40
80
ENDCHAR
STARTCHAR afii10100
ENCODING 131
SWIDTH 384 0
DWIDTH 4 0
BBX 4 8 0 0
BITMAP
10
20
00
60
10
60
80
60
ENDCHAR
STARTCHAR quotedblbase
ENCODING 132
SWIDTH 556 0
DWIDTH 6 0
BBX 4 3 0 -2
BITMAP
50
50
A0
ENDCHAR
STARTCHAR ellipsis
ENCODING 133
SWIDTH 889 0
DWIDTH 9 0
BBX 7 1 1 0
BITMAP
92
ENDCHAR
STARTCHAR dagger
ENCODING 134
SWIDTH 500 0
DWIDTH 5 0
BBX 4 9 1 -1
BITMAP
20
20
F0
40
40
40
80
80
80
ENDCHAR
STARTCHAR daggerdbl
ENCODING 135
SWIDTH 500 0
DWIDTH 5 0
BBX 5 9 0 -1
BITMAP
10
10
78
20
20
20
F0
40
40
ENDCHAR
STARTCHAR Euro
ENCODING 136
SWIDTH 768 0
DWIDTH 8 0
BBX 8 7 0 0
BITMAP
0F
11
7C
20
F8
44
38
ENDCHAR
STARTCHAR perthousand
ENCODING 137
SWIDTH 1000 0
DWIDTH 10 0
BBX 10 7 0 0
BITMAP
6400
B800
A800
5480
2B40
4B40
4480
ENDCHAR
STARTCHAR afii10058
ENCODING 138
SWIDTH 960 0
DWIDTH 10 0
BBX 10 7 -1 0
BITMAP
1F80
0900
1200
13C0
2440
A440
CF80
ENDCHAR
STARTCHAR guilsinglleft
ENCODING 139
SWIDTH 333 0
DWIDTH 3 0
BBX 3 5 0 0
BITMAP
20
40
80
80
40
ENDCHAR
STARTCHAR afii10059
ENCODING 140
SWIDTH 960 0
DWIDTH 10 0
BBX 10 7 -1 0
BITMAP
3B80
1100
2200
3FC0
4440
4440
EF80
ENDCHAR
STARTCHAR afii10061
ENCODING 141
SWIDTH 672 0
DWIDTH 7 0
BBX 8 10 -1 0
BITMAP
02
04
00
3B
12
24
38
48
44
EE
ENDCHAR
STARTCHAR afii10060
ENCODING 142
SWIDTH 864 0
DWIDTH 9 0
BBX 7 7 1 0
BITMAP
7E
94
20
3C
44
44
EE
ENDCHAR
STARTCHAR afii10145
ENCODING 143
SWIDTH 672 0
DWIDTH 7 0
BBX 9 8 -1 -1
BITMAP
3B80
1100
2200
2200
4400
4400
FE00
1000
ENDCHAR
STARTCHAR afii10099
ENCODING 144
SWIDTH 480 0
DWIDTH 5 0
BBX 4 10 0 -3
BITMAP
20
70
20
70
50
90
A0
20
40
80
ENDCHAR
STARTCHAR quoteleft
ENCODING 145
SWIDTH 333 0
DWIDTH 3 0
BBX 2 3 2 5
BITMAP
40
80
80
ENDCHAR
STARTCHAR quoteright
ENCODING 146
SWIDTH 333 0
DWIDTH 3 0
BBX 2 3 1 5
BITMAP
40
40
80
ENDCHAR
STARTCHAR quotedblleft
ENCODING 147
SWIDTH 556 0
DWIDTH 6 0
BBX 4 3 2 5
BITMAP
50
A0
A0
ENDCHAR
STARTCHAR quotedblright
ENCODING 148
SWIDTH 556 0
DWIDTH 6 0
BBX 4 3 2 5
BITMAP
50
50
A0
ENDCHAR
STARTCHAR bullet
ENCODING 149
SWIDTH 350 0
DWIDTH 5 0
BBX 3 3 1 2
BITMAP
60
E0
C0
ENDCHAR
STARTCHAR endash
ENCODING 150
SWIDTH 500 0
DWIDTH 5 0
BBX 5 1 0 2
BITMAP
F8
ENDCHAR
STARTCHAR emdash
ENCODING 151
SWIDTH 889 0
DWIDTH 9 0
BBX 9 1 0 2
BITMAP
FF80
ENDCHAR
STARTCHAR trademark
ENCODING 153
SWIDTH 980 0
DWIDTH 11 0
BBX 9 4 1 3
BITMAP
E880
4D80
4A80
4A80
ENDCHAR
STARTCHAR afii10106
ENCODING 154
SWIDTH 672 0
DWIDTH 7 0
BBX 7 5 -1 0
BITMAP
18
2C
2A
52
9C
ENDCHAR
STARTCHAR guilsinglright
ENCODING 155
SWIDTH 333 0
DWIDTH 4 0
BBX 3 5 0 0
BITMAP
40
20
20
40
80
ENDCHAR
STARTCHAR afii10107
ENCODING 156
SWIDTH 672 0
DWIDTH 7 0
BBX 6 5 0 0
BITMAP
D0
58
74
A4
B8
ENDCHAR
STARTCHAR afii10109
ENCODING 157
SWIDTH 480 0
DWIDTH 5 0
BBX 5 8 0 0
BITMAP
10
20
00
C8
50
E0
A0
98
ENDCHAR
STARTCHAR afii10108
ENCODING 158
SWIDTH 480 0
DWIDTH 5 0
BBX 4 7 0 0
BITMAP
20
70
20
70
50
A0
B0
ENDCHAR
STARTCHAR afii10193
ENCODING 159
SWIDTH 480 0
DWIDTH 5 0
BBX 4 7 0 -2
BITMAP
D0
50
A0
A0
D0
40
40
ENDCHAR
STARTCHAR space
ENCODING 160
SWIDTH 250 0
DWIDTH 2 0
BBX 0 0 0 0
BITMAP
ENDCHAR
STARTCHAR afii10062
ENCODING 161
SWIDTH 576 0
DWIDTH 6 0
BBX 7 9 0 0
BITMAP
18
00
EE
44
48
30
10
20
C0
ENDCHAR
STARTCHAR afii10110
ENCODING 162
SWIDTH 480 0
DWIDTH 5 0
BBX 5 10 -1 -3
BITMAP
18
00
68
28
28
30
10
20
20
C0
ENDCHAR
STARTCHAR afii10057
ENCODING 163
SWIDTH 444 0
DWIDTH 4 0
BBX 6 7 -1 0
BITMAP
1C
08
10
10
20
A0
C0
ENDCHAR
STARTCHAR currency
ENCODING 164
SWIDTH 500 0
DWIDTH 5 0
BBX 6 6 -1 1
BITMAP
84
78
48
48
78
84
ENDCHAR
STARTCHAR afii10050
ENCODING 165
SWIDTH 576 0
DWIDTH 6 0
BBX 8 8 -1 0
BITMAP
01
3E
10
20
20
40
40
E0
ENDCHAR
STARTCHAR brokenbar
ENCODING 166
SWIDTH 275 0
DWIDTH 3 0
BBX 3 9 0 -2
BITMAP
20
20
40
40
00
40
40
80
80
ENDCHAR
STARTCHAR section
ENCODING 167
SWIDTH 500 0
DWIDTH 5 0
BBX 6 9 -1 -2
BITMAP
18
24
30
58
48
68
30
90
60
ENDCHAR
STARTCHAR afii10023
ENCODING 168
SWIDTH 611 0
DWIDTH 6 0
BBX 7 9 -1 0
BITMAP
14
00
3E
12
20
38
40
44
F8
ENDCHAR
STARTCHAR copyright
ENCODING 169
SWIDTH 760 0
DWIDTH 9 0
BBX 7 7 1 0
BITMAP
38
44
9A
A2
9A
44
38
ENDCHAR
STARTCHAR afii10053
ENCODING 170
SWIDTH 672 0
DWIDTH 7 0
BBX 7 7 0 0
BITMAP
1E
22
40
70
80
88
70
ENDCHAR
STARTCHAR guillemotleft
ENCODING 171
SWIDTH 500 0
DWIDTH 5 0
BBX 5 5 0 0
BITMAP
28
50
A0
A0
50
ENDCHAR
STARTCHAR logicalnot
ENCODING 172
SWIDTH 675 0
DWIDTH 7 0
BBX 5 3 0 1
BITMAP
F8
08
08
ENDCHAR
STARTCHAR hyphen
ENCODING 173
SWIDTH 333 0
DWIDTH 4 0
BBX 3 1 0 2
BITMAP
E0
ENDCHAR
STARTCHAR registered
ENCODING 174
SWIDTH 760 0
DWIDTH 9 0
BBX 7 7 1 0
BITMAP
38
44
BA
B2
AA
44
38
ENDCHAR
STARTCHAR afii10056
ENCODING 175
SWIDTH 333 0
DWIDTH 3 0
BBX 5 9 -1 0
BITMAP
28
00
38
10
20
20
40
40
E0
ENDCHAR
STARTCHAR degree
ENCODING 176
SWIDTH 400 0
DWIDTH 4 0
BBX 4 4 0 3
BITMAP
60
90
90
60
ENDCHAR
STARTCHAR plusminus
ENCODING 177
SWIDTH 675 0
DWIDTH 7 0
BBX 5 7 0 0
BITMAP
20
20
F8
20
20
00
F8
ENDCHAR
STARTCHAR afii10055
ENCODING 178
SWIDTH 333 0
DWIDTH 3 0
BBX 5 7 -1 0
BITMAP
38
10
20
20
40
40
E0
ENDCHAR
STARTCHAR afii10103
ENCODING 179
SWIDTH 278 0
DWIDTH 3 0
BBX 3 7 0 0
BITMAP
20
00
C0
40
40
80
C0
ENDCHAR
STARTCHAR afii10098
ENCODING 180
SWIDTH 384 0
DWIDTH 4 0
BBX 5 6 0 0
BITMAP
08
70
40
80
80
C0
ENDCHAR
STARTCHAR mu
ENCODING 181
SWIDTH 500 0
DWIDTH 5 0
BBX 5 8 -1 -3
BITMAP
68
28
50
50
68
80
80
C0
ENDCHAR
STARTCHAR paragraph
ENCODING 182
SWIDTH 523 0
DWIDTH 6 0
BBX 7 10 0 -3
BITMAP
3E
74
F4
E8
E8
50
50
A0
A0
A0
ENDCHAR
STARTCHAR periodcentered
ENCODING 183
SWIDTH 250 0
DWIDTH 3 0
BBX 1 1 0 2
BITMAP
80
ENDCHAR
STARTCHAR afii10071
ENCODING 184
SWIDTH 444 0
DWIDTH 5 0
BBX 4 7 0 0
BITMAP
50
00
30
50
E0
90
E0
ENDCHAR
STARTCHAR afii61352
ENCODING 185
SWIDTH 960 0
DWIDTH 10 0
BBX 11 7 -1 0
BITMAP
3180
1100
2940
2AA0
4A40
4400
C5C0
ENDCHAR
STARTCHAR afii10101
ENCODING 186
SWIDTH 480 0
DWIDTH 5 0
BBX 4 5 0 0
BITMAP
30
40
E0
90
E0
ENDCHAR
STARTCHAR guillemotright
ENCODING 187
SWIDTH 500 0
DWIDTH 5 0
BBX 5 5 0 0
BITMAP
50
28
28
50
A0
ENDCHAR
STARTCHAR afii10105
ENCODING 188
SWIDTH 278 0
DWIDTH 3 0
BBX 5 10 -2 -3
BITMAP
08
00
30
10
10
20
20
20
A0
C0
ENDCHAR
STARTCHAR afii10054
ENCODING 189
SWIDTH 500 0
DWIDTH 5 0
BBX 5 7 0 0
BITMAP
38
48
40
20
10
90
E0
ENDCHAR
STARTCHAR afii10102
ENCODING 190
SWIDTH 389 0
DWIDTH 4 0
BBX 3 5 0 0
BITMAP
60
80
40
20
C0
ENDCHAR
STARTCHAR afii10104
ENCODING 191
SWIDTH 278 0
DWIDTH 3 0
BBX 3 7 0 0
BITMAP
A0
00
C0
40
40
80
C0
ENDCHAR
STARTCHAR afii10017
ENCODING 192
SWIDTH 672 0
DWIDTH 7 0
BBX 7 7 -1 0
BITMAP
04
0C
14
24
3C
44
EE
ENDCHAR
STARTCHAR afii10018
ENCODING 193
SWIDTH 576 0
DWIDTH 6 0
BBX 7 7 -1 0
BITMAP
3E
12
20
3C
44
44
F8
ENDCHAR
STARTCHAR afii10019
ENCODING 194
SWIDTH 576 0
DWIDTH 6 0
BBX 7 7 -1 0
BITMAP
3C
12
22
3C
44
44
F8
ENDCHAR
STARTCHAR afii10020
ENCODING 195
SWIDTH 576 0
DWIDTH 6 0
BBX 7 7 -1 0
BITMAP
3E
12
20
20
40
40
E0
ENDCHAR
STARTCHAR afii10021
ENCODING 196
SWIDTH 672 0
DWIDTH 7 0
BBX 10 8 -2 -1
BITMAP
0FC0
0480
0900
0900
1200
2200
7F00
8200
ENDCHAR
STARTCHAR afii10022
ENCODING 197
SWIDTH 576 0
DWIDTH 6 0
BBX 7 7 -1 0
BITMAP
3E
12
20
38
40
44
F8
ENDCHAR
STARTCHAR afii10024
ENCODING 198
SWIDTH 864 0
DWIDTH 9 0
BBX 10 7 -1 0
BITMAP
36C0
1280
1500
1E00
2A00
4900
DD80
ENDCHAR
STARTCHAR afii10025
ENCODING 199
SWIDTH 576 0
DWIDTH 6 0
BBX 6 7 0 0
BITMAP
38
24
04
38
08
88
70
ENDCHAR
STARTCHAR afii10026
ENCODING 200
SWIDTH 672 0
DWIDTH 7 0
BBX 9 7 -1 0
BITMAP
3B80
1100
2700
2A00
7200
4400
EE00
ENDCHAR
STARTCHAR afii10027
ENCODING 201
SWIDTH 672 0
DWIDTH 7 0
BBX 9 9 -1 0
BITMAP
0600
0000
3B80
1100
2700
2A00
7200
4400
EE00
ENDCHAR
STARTCHAR afii10028
ENCODING 202
SWIDTH 672 0
DWIDTH 7 0
BBX 8 7 -1 0
BITMAP
3B
12
24
38
48
44
EE
ENDCHAR
STARTCHAR afii10029
ENCODING 203
SWIDTH 768 0
DWIDTH 8 0
BBX 9 7 0 0
BITMAP
1F80
0900
1200
1200
2400
A400
CE00
ENDCHAR
STARTCHAR afii10030
ENCODING 204
SWIDTH 960 0
DWIDTH 10 0
BBX 11 7 -1 0
BITMAP
3060
10C0
2940
2A40
4A80
4C80
E9C0
ENDCHAR
STARTCHAR afii10031
ENCODING 205
SWIDTH 672 0
DWIDTH 7 0
BBX 9 7 -1 0
BITMAP
3B80
1100
2200
3E00
4400
4400
EE00
ENDCHAR
STARTCHAR afii10032
ENCODING 206
SWIDTH 672 0
DWIDTH 7 0
BBX 7 7 0 0
BITMAP
1C
22
42
44
84
88
70
ENDCHAR
STARTCHAR afii10033
ENCODING 207
SWIDTH 672 0
DWIDTH 7 0
BBX 9 7 -1 0
BITMAP
3F80
1100
2200
2200
4400
4400
EE00
ENDCHAR
STARTCHAR afii10034
ENCODING 208
SWIDTH 576 0
DWIDTH 6 0
BBX 7 7 -1 0
BITMAP
3C
12
22
3C
40
40
E0
ENDCHAR
STARTCHAR afii10035
ENCODING 209
SWIDTH 672 0
DWIDTH 7 0
BBX 7 7 0 0
BITMAP
1E
22
40
40
80
88
70
ENDCHAR
STARTCHAR afii10036
ENCODING 210
SWIDTH 576 0
DWIDTH 6 0
BBX 7 7 0 0
BITMAP
7E
94
20
20
40
40
E0
ENDCHAR
STARTCHAR afii10037
ENCODING 211
SWIDTH 576 0
DWIDTH 6 0
BBX 7 7 0 0
BITMAP
76
24
28
30
10
20
C0
ENDCHAR
STARTCHAR afii10038
ENCODING 212
SWIDTH 768 0
DWIDTH 8 0
BBX 8 7 0 0
BITMAP
04
3E
49
89
92
7C
10
ENDCHAR
STARTCHAR afii10039
ENCODING 213
SWIDTH 576 0
DWIDTH 6 0
BBX 8 7 -1 0
BITMAP
37
12
14
18
28
48
DC
ENDCHAR
STARTCHAR afii10040
ENCODING 214
SWIDTH 672 0
DWIDTH 7 0
BBX 9 8 -1 -1
BITMAP
3B80
1100
2200
2200
4400
4400
FE00
0400
ENDCHAR
STARTCHAR afii10041
ENCODING 215
SWIDTH 672 0
DWIDTH 7 0
BBX 7 7 1 0
BITMAP
EE
44
48
78
10
10
38
ENDCHAR
STARTCHAR afii10042
ENCODING 216
SWIDTH 864 0
DWIDTH 9 0
BBX 11 7 -1 0
BITMAP
3AE0
1240
2480
2480
4900
4900
FF80
ENDCHAR
STARTCHAR afii10043
ENCODING 217
SWIDTH 864 0
DWIDTH 9 0
BBX 11 8 -1 -1
BITMAP
3AE0
1240
2480
2480
4900
4900
FF80
0100
ENDCHAR
STARTCHAR afii10044
ENCODING 218
SWIDTH 672 0
DWIDTH 7 0
BBX 6 7 0 0
BITMAP
78
50
20
3C
44
44
F8
ENDCHAR
STARTCHAR afii10045
ENCODING 219
SWIDTH 864 0
DWIDTH 9 0
BBX 11 7 -1 0
BITMAP
38E0
1040
2080
3C80
4500
4500
FB80
ENDCHAR
STARTCHAR afii10046
ENCODING 220
SWIDTH 576 0
DWIDTH 6 0
BBX 6 7 -1 0
BITMAP
38
10
20
3C
44
44
F8
ENDCHAR
STARTCHAR afii10047
ENCODING 221
SWIDTH 672 0
DWIDTH 7 0
BBX 7 7 0 0
BITMAP
3C
22
02
1C
04
88
70
ENDCHAR
STARTCHAR afii10048
ENCODING 222
SWIDTH 864 0
DWIDTH 9 0
BBX 10 7 -1 0
BITMAP
3B80
1440
2840
3880
5080
5100
EE00
ENDCHAR
STARTCHAR afii10049
ENCODING 223
SWIDTH 672 0
DWIDTH 7 0
BBX 9 7 -1 0
BITMAP
0F80
1100
1200
1E00
1200
2400
CE00
ENDCHAR
STARTCHAR afii10065
ENCODING 224
SWIDTH 480 0
DWIDTH 5 0
BBX 4 5 0 0
BITMAP
30
50
90
A0
D0
ENDCHAR
STARTCHAR afii10066
ENCODING 225
SWIDTH 480 0
DWIDTH 5 0
BBX 5 7 0 0
BITMAP
18
20
70
50
90
A0
E0
ENDCHAR
STARTCHAR afii10067
ENCODING 226
SWIDTH 480 0
DWIDTH 5 0
BBX 4 5 0 0
BITMAP
60
90
E0
90
60
ENDCHAR
STARTCHAR afii10068
ENCODING 227
SWIDTH 384 0
DWIDTH 4 0
BBX 4 5 0 0
BITMAP
60
10
60
80
60
ENDCHAR
STARTCHAR afii10069
ENCODING 228
SWIDTH 480 0
DWIDTH 5 0
BBX 4 8 0 0
BITMAP
40
20
10
70
50
90
A0
E0
ENDCHAR
STARTCHAR afii10070
ENCODING 229
SWIDTH 480 0
DWIDTH 5 0
BBX 4 5 0 0
BITMAP
30
50
E0
90
E0
ENDCHAR
STARTCHAR afii10072
ENCODING 230
SWIDTH 672 0
DWIDTH 7 0
BBX 8 5 -1 0
BITMAP
49
2A
1C
34
D3
ENDCHAR
STARTCHAR afii10073
ENCODING 231
SWIDTH 480 0
DWIDTH 5 0
BBX 4 5 0 0
BITMAP
60
10
20
90
60
ENDCHAR
STARTCHAR afii10074
ENCODING 232
SWIDTH 480 0
DWIDTH 5 0
BBX 4 5 0 0
BITMAP
D0
50
A0
A0
D0
ENDCHAR
STARTCHAR afii10075
ENCODING 233
SWIDTH 480 0
DWIDTH 5 0
BBX 4 7 0 0
BITMAP
30
00
D0
50
A0
A0
D0
ENDCHAR
STARTCHAR afii10076
ENCODING 234
SWIDTH 480 0
DWIDTH 5 0
BBX 5 5 0 0
BITMAP
C8
50
E0
A0
98
ENDCHAR
STARTCHAR afii10077
ENCODING 235
SWIDTH 480 0
DWIDTH 5 0
BBX 5 5 -1 0
BITMAP
18
28
28
50
98
ENDCHAR
STARTCHAR afii10078
ENCODING 236
SWIDTH 672 0
DWIDTH 7 0
BBX 7 5 -1 0
BITMAP
12
36
3A
54
96
ENDCHAR
STARTCHAR afii10079
ENCODING 237
SWIDTH 480 0
DWIDTH 5 0
BBX 4 5 0 0
BITMAP
D0
50
70
A0
B0
ENDCHAR
STARTCHAR afii10080
ENCODING 238
SWIDTH 480 0
DWIDTH 5 0
BBX 4 5 0 0
BITMAP
70
50
90
A0
E0
ENDCHAR
STARTCHAR afii10081
ENCODING 239
SWIDTH 480 0
DWIDTH 5 0
BBX 4 5 0 0
BITMAP
B0
50
50
A0
B0
ENDCHAR
STARTCHAR afii10082
ENCODING 240
SWIDTH 480 0
DWIDTH 5 0
BBX 6 8 -2 -3
BITMAP
38
14
24
28
30
40
40
E0
ENDCHAR
STARTCHAR afii10083
ENCODING 241
SWIDTH 480 0
DWIDTH 5 0
BBX 4 5 0 0
BITMAP
30
50
80
90
E0
ENDCHAR
STARTCHAR afii10084
ENCODING 242
SWIDTH 672 0
DWIDTH 7 0
BBX 6 5 0 0
BITMAP
AC
54
54
A8
AC
ENDCHAR
STARTCHAR afii10085
ENCODING 243
SWIDTH 480 0
DWIDTH 5 0
BBX 5 8 -1 -3
BITMAP
68
28
28
30
10
20
20
C0
ENDCHAR
STARTCHAR afii10086
ENCODING 244
SWIDTH 672 0
DWIDTH 7 0
BBX 6 10 0 -3
BITMAP
08
10
38
54
A4
A8
70
40
40
80
ENDCHAR
STARTCHAR afii10087
ENCODING 245
SWIDTH 384 0
DWIDTH 4 0
BBX 5 5 -1 0
BITMAP
48
30
20
50
90
ENDCHAR
STARTCHAR afii10088
ENCODING 246
SWIDTH 480 0
DWIDTH 5 0
BBX 4 7 0 -2
BITMAP
D0
50
A0
A0
D0
20
20
ENDCHAR
STARTCHAR afii10089
ENCODING 247
SWIDTH 480 0
DWIDTH 5 0
BBX 4 5 0 0
BITMAP
D0
50
60
20
10
ENDCHAR
STARTCHAR afii10090
ENCODING 248
SWIDTH 672 0
DWIDTH 7 0
BBX 6 5 0 0
BITMAP
D4
54
A8
A8
D4
ENDCHAR
STARTCHAR afii10091
ENCODING 249
SWIDTH 672 0
DWIDTH 7 0
BBX 6 7 0 -2
BITMAP
D4
54
A8
A8
D4
08
08
ENDCHAR
STARTCHAR afii10092
ENCODING 250
SWIDTH 576 0
DWIDTH 6 0
BBX 5 5 0 0
BITMAP
E0
30
48
48
30
ENDCHAR
STARTCHAR afii10093
ENCODING 251
SWIDTH 768 0
DWIDTH 8 0
BBX 7 5 0 0
BITMAP
C6
62
94
94
62
ENDCHAR
STARTCHAR afii10094
ENCODING 252
SWIDTH 480 0
DWIDTH 5 0
BBX 4 5 0 0
BITMAP
C0
60
90
90
60
ENDCHAR
STARTCHAR afii10095
ENCODING 253
SWIDTH 480 0
DWIDTH 5 0
BBX 4 5 0 0
BITMAP
60
10
30
90
60
ENDCHAR
STARTCHAR afii10096
ENCODING 254
SWIDTH 672 0
DWIDTH 7 0
BBX 6 5 0 0
BITMAP
DC
54
E4
A8
B8
ENDCHAR
STARTCHAR afii10097
ENCODING 255
SWIDTH 480 0
DWIDTH 5 0
BBX 5 5 -1 0
BITMAP
30
48
38
50
98
ENDCHAR
STARTCHAR Lslash
ENCODING -1
SWIDTH 556 0
DWIDTH 6 0
BBX 6 7 -1 0
BITMAP
38
10
20
30
C0
44
FC
ENDCHAR
STARTCHAR OE
ENCODING -1
SWIDTH 944 0
DWIDTH 10 0
BBX 10 7 0 0
BITMAP
1FC0
2240
4400
4780
8800
8880
7F00
ENDCHAR
STARTCHAR Scaron
ENCODING -1
SWIDTH 500 0
DWIDTH 5 0
BBX 5 10 0 0
BITMAP
28
10
00
38
48
40
20
10
90
E0
ENDCHAR
STARTCHAR Ydieresis
ENCODING -1
SWIDTH 556 0
DWIDTH 6 0
BBX 7 9 0 0
BITMAP
14
00
76
24
28
30
20
40
E0
ENDCHAR
STARTCHAR Zcaron
ENCODING -1
SWIDTH 556 0
DWIDTH 6 0
BBX 7 10 0 0
BITMAP
14
08
00
3E
24
08
10
20
48
F8
ENDCHAR
STARTCHAR breve
ENCODING -1
SWIDTH 333 0
DWIDTH 3 0
BBX 3 2 1 6
BITMAP
A0
E0
ENDCHAR
STARTCHAR caron
ENCODING -1
SWIDTH 333 0
DWIDTH 3 0
BBX 3 2 1 6
BITMAP
A0
40
ENDCHAR
STARTCHAR circumflex
ENCODING -1
SWIDTH 333 0
DWIDTH 3 0
BBX 3 2 1 6
BITMAP
40
A0
ENDCHAR
STARTCHAR dotaccent
ENCODING -1
SWIDTH 333 0
DWIDTH 3 0
BBX 1 1 1 6
BITMAP
80
ENDCHAR
STARTCHAR dotlessi
ENCODING -1
SWIDTH 278 0
DWIDTH 3 0
BBX 2 5 0 0
BITMAP
C0
40
40
80
C0
ENDCHAR
STARTCHAR fi
ENCODING -1
SWIDTH 500 0
DWIDTH 5 0
BBX 7 10 -2 -3
BITMAP
0E
10
3E
12
14
24
26
20
20
C0
ENDCHAR
STARTCHAR fl
ENCODING -1
SWIDTH 500 0
DWIDTH 5 0
BBX 8 10 -2 -3
BITMAP
0F
11
3E
12
14
24
26
20
20
C0
ENDCHAR
STARTCHAR florin
ENCODING -1
SWIDTH 500 0
DWIDTH 5 0
BBX 6 9 -1 -2
BITMAP
0C
10
7C
10
10
20
20
A0
C0
ENDCHAR
STARTCHAR fraction
ENCODING -1
SWIDTH 167 0
DWIDTH 3 0
BBX 5 7 -1 0
BITMAP
08
10
10
20
40
40
80
ENDCHAR
STARTCHAR hungarumlaut
ENCODING -1
SWIDTH 333 0
DWIDTH 3 0
BBX 5 2 0 6
BITMAP
48
90
ENDCHAR
STARTCHAR lslash
ENCODING -1
SWIDTH 278 0
DWIDTH 3 0
BBX 4 7 -1 0
BITMAP
30
10
20
30
C0
40
60
ENDCHAR
STARTCHAR oe
ENCODING -1
SWIDTH 667 0
DWIDTH 7 0
BBX 7 5 0 0
BITMAP
7C
54
98
B2
FC
ENDCHAR
STARTCHAR ogonek
ENCODING -1
SWIDTH 333 0
DWIDTH 3 0
BBX 2 2 0 -2
BITMAP
80
C0
ENDCHAR
STARTCHAR ring
ENCODING -1
SWIDTH 333 0
DWIDTH 3 0
BBX 3 3 2 5
BITMAP
40
A0
40
ENDCHAR
STARTCHAR scaron
ENCODING -1
SWIDTH 389 0
DWIDTH 4 0
BBX 4 8 0 0
BITMAP
50
20
00
60
80
40
20
C0
ENDCHAR
STARTCHAR tilde
ENCODING -1
SWIDTH 333 0
DWIDTH 4 0
BBX 4 2 1 6
BITMAP
50
A0
ENDCHAR
STARTCHAR zcaron
ENCODING -1
SWIDTH 389 0
DWIDTH 4 0
BBX 4 8 0 0
BITMAP
50
20
00
70
10
20
40
E0
ENDCHAR
ENDFONT
